<svg xmlns="http://www.w3.org/2000/svg" width="96" height="96" viewBox="0 0 96 96">
    <defs>
        <linearGradient id="g" x1="0" x2="1" y1="0" y2="1">
            <stop offset="0" stop-color="#21c1d6"/>
            <stop offset="1" stop-color="#0ea5e9"/>
        </linearGradient>
    </defs>
    <rect width="96" height="96" rx="18" fill="url(#g)"/>
    <g fill="none" stroke="#ffffff" stroke-width="5" stroke-linecap="round" stroke-linejoin="round" transform="translate(22,20)">
        <path d="M38 2c4 4 4 10 0 14l-6 6-10-10 6-6c4-4 10-4 14 0z"/>
        <path d="M12 18l10 10"/>
        <circle cx="6" cy="34" r="6"/>
        <path d="M6 34l12 12"/>
    </g>
    <path d="M68 58c0 6.627-5.373 12-12 12s-12-5.373-12-12S56 44 56 44s12 7.373 12 14z" fill="#ffffff" opacity=".9"/>
</svg>
